
        <svg xmlns="http://www.w3.org/2000/svg" xmlns:xlink="http://www.w3.org/1999/xlink" version="1.1" width="3176.470588235294" height="1998.370410357938" viewBox="0 0 3176.470588235294 1998.370410357938">
			
			<g transform="scale(8.823529411764707) translate(10, 10)">
				<defs id="SvgjsDefs1239"/><g id="SvgjsG1240" featureKey="symbolFeature-0" transform="matrix(1.2800000000000002,0,0,1.2800000000000002,106.601904296875,-6.400000000000001)" fill="#fff"><path xmlns="http://www.w3.org/2000/svg" d="M50,95c0,0,0.3,0,0.3,0c12-0.1,23.3-4.8,31.7-13.4c8.4-8.6,13.1-19.9,13-31.9C94.8,25.1,74.7,5,50,5    C24.9,5.2,4.8,25.5,5,50.3C5.2,74.9,25.3,95,50,95z M23.8,47.1v-2.8c0-1.6,1.3-2.9,2.9-2.9c1.2,0,2.2,0.7,2.6,1.7v-5.7    c0-1.6,1.3-2.9,2.9-2.9c1.2,0,2.2,0.7,2.6,1.7v-4.5c0-1.6,1.3-2.9,2.9-2.9c1.6,0,2.9,1.3,2.9,2.9v15.3h18.6V31.8    c0-1.6,1.3-2.9,2.9-2.9c1.6,0,2.9,1.3,2.9,2.9v4.9c0.3-1.2,1.5-2.1,2.8-2.1c1.6,0,2.9,1.3,2.9,2.9V43c0.5-0.9,1.5-1.6,2.6-1.6    c1.6,0,2.9,1.3,2.9,2.9v2.8c1.4,0.2,2.4,1.4,2.4,2.9c0,1.4-1.1,2.6-2.4,2.9v2.8c0,1.6-1.3,2.9-2.9,2.9c-1.1,0-2.1-0.6-2.6-1.6v5.6    c0,1.6-1.3,2.9-2.9,2.9c-1.3,0-2.5-0.9-2.8-2.1v4.9c0,1.6-1.3,2.9-2.9,2.9c-1.6,0-2.9-1.3-2.9-2.9V52.9H40.6v15.3    c0,1.6-1.3,2.9-2.9,2.9c-1.6,0-2.9-1.3-2.9-2.9v-4.5c-0.5,1-1.5,1.7-2.6,1.7c-1.6,0-2.9-1.3-2.9-2.9v-5.7c-0.5,1-1.5,1.7-2.6,1.7    c-1.6,0-2.9-1.3-2.9-2.9v-2.8c-1.4-0.2-2.4-1.4-2.4-2.9S22.4,47.4,23.8,47.1z"/></g><g id="SvgjsG1241" featureKey="nameFeature-0" transform="matrix(1.4859171488409877,0,0,1.4859171488409877,-0.9443839764163707,119.73125241820708)" fill="#fff"><path d="M12.2 23.96 c0.36 -0.92 0.56 -1.88 0.56 -2.88 c0 -0.36 0 -0.76 -0.08 -1.12 c-0.12 -0.6 -0.28 -1.24 -0.56 -1.84 c-0.4 -0.92 -1.12 -1.24 -2.04 -0.92 c-0.4 0.12 -0.8 0.32 -1.12 0.6 c-0.48 0.4 -0.96 0.88 -1.32 1.4 c-0.52 0.8 -0.96 1.6 -1.32 2.48 c-1.04 2.64 -1.52 5.44 -1.76 8.28 c-0.04 0.24 0 0.48 0 0.68 s0.2 0.32 0.4 0.28 c1.08 -0.44 2.08 -1 3.04 -1.68 c1.92 -1.36 3.32 -3.12 4.2 -5.28 z M3.88 17.28 c-0.12 0.76 -0.16 1.56 -0.08 2.52 l1.16 -1.96 c0.68 -1.16 1.64 -2.12 2.8 -2.84 c1.12 -0.72 2.32 -1 3.64 -0.84 c1.44 0.2 2.48 1.04 3.2 2.24 c0.68 1.12 1 2.32 1.12 3.6 c0.16 1.84 -0.16 3.6 -0.88 5.32 c-1.36 3.2 -3.64 5.56 -6.64 7.32 l-0.96 0.56 c-0.04 0.04 -0.08 0.08 -0.08 0.12 c0.04 0.08 0.08 0.16 0.12 0.2 c0.64 0.28 1.24 0.32 1.92 0.08 c0.4 -0.12 0.76 -0.28 1.2 -0.36 c0.8 -0.16 1.4 0.2 1.64 0.92 c0.24 0.64 0 1.32 -0.64 1.68 c-1.24 0.72 -2.56 1.16 -4 0.8 c-0.28 -0.08 -0.56 -0.16 -0.84 -0.16 c-0.48 -0.08 -0.88 -0.56 -1.4 -0.32 c-0.2 0.48 0.08 0.92 0.16 1.36 c0.08 0.36 0.04 0.76 -0.12 1.08 c-0.44 0.92 -1.64 1.12 -2.36 0.4 c-0.28 -0.28 -0.48 -0.68 -0.56 -1.08 c-0.28 -1.32 -0.56 -2.64 -0.8 -3.96 c-0.36 -2.08 -0.56 -4.16 -0.68 -6.28 c-0.12 -1.56 -0.12 -3.16 -0.16 -4.76 c-0.04 -2.24 0.2 -4.48 0.32 -6.68 c0.04 -0.68 0.16 -1.32 0.28 -1.96 c0.12 -0.6 0.44 -1.04 1.04 -1.2 c1 -0.32 2 0.48 1.92 1.56 c-0.08 0.88 -0.2 1.76 -0.32 2.64 z M21.781000000000002 23.16 l0.04 0 l0 -7.96 c0 -0.48 0 -0.92 0.04 -1.4 c0.04 -0.32 0.12 -0.64 0.24 -0.96 c0.2 -0.52 0.68 -0.72 1.24 -0.76 c0.52 0 0.96 0.24 1.24 0.76 c0.2 0.36 0.28 0.76 0.28 1.2 c-0.08 1.48 -0.12 2.96 -0.12 4.48 c-0.04 2 -0.04 4 0 6 c0.04 3.52 0.2 7 0.28 10.48 c0.04 0.84 0.12 1.68 0.16 2.52 c0 0.36 -0.08 0.76 -0.16 1.08 c-0.2 0.64 -0.68 0.88 -1.28 0.92 c-0.56 0 -1.04 -0.24 -1.24 -0.76 c-0.2 -0.36 -0.28 -0.76 -0.32 -1.2 c-0.08 -0.6 -0.04 -1.2 -0.08 -1.8 l-0.24 -6.28 c-0.08 -2.12 -0.04 -4.2 -0.08 -6.32 z M31.802000000000003 30.240000000000002 c-0.44 -1.84 -0.64 -3.72 -0.64 -5.48 c0 -2.64 0.36 -5 1.2 -7.32 c0.68 -1.88 1.64 -3.56 3.12 -4.92 c0.76 -0.72 1.64 -1.24 2.6 -1.56 c1.36 -0.44 2.68 -0.4 3.96 0.08 c0.84 0.32 1.64 0.8 2.28 1.36 c1.64 1.44 2.76 3.16 3.52 5.16 c0.28 0.76 -0.08 1.6 -0.76 1.88 s-1.44 0.04 -1.84 -0.6 c-0.2 -0.32 -0.32 -0.68 -0.52 -1 c-0.4 -0.72 -0.84 -1.44 -1.28 -2.12 c-0.44 -0.64 -1 -1.12 -1.64 -1.52 c-1.36 -0.8 -2.68 -0.76 -3.92 0.2 c-0.76 0.56 -1.36 1.28 -1.84 2.08 c-0.88 1.56 -1.4 3.24 -1.68 5 c-0.16 1.2 -0.36 2.4 -0.28 3.64 c0.16 2.72 0.6 5.36 1.88 7.84 c0.48 0.88 1.04 1.76 1.84 2.44 c0.32 0.32 0.68 0.64 1.12 0.84 c1.32 0.68 2.6 0.6 3.76 -0.36 c0.56 -0.44 0.96 -1 1.44 -1.52 c0.2 -0.24 0.36 -0.52 0.6 -0.76 c0.4 -0.44 1.12 -0.6 1.68 -0.32 c0.44 0.2 0.76 0.56 0.76 1.08 c0.04 0.32 0 0.64 -0.16 0.92 c-1.04 1.92 -2.52 3.36 -4.6 4.08 c-1.64 0.6 -3.2 0.36 -4.72 -0.4 c-1.24 -0.64 -2.24 -1.56 -3.08 -2.64 c-1.36 -1.8 -2.24 -3.88 -2.8 -6.08 z M69.02300000000001 17.92 l-0.08 8.24 l-0.08 0 l0 4.48 c-0.04 2.52 -0.12 5.04 -0.16 7.56 c0 0.28 0 0.56 -0.08 0.84 c-0.16 0.64 -0.8 1.16 -1.4 1.16 c-0.64 -0.04 -1.24 -0.56 -1.36 -1.24 c-0.04 -0.4 -0.08 -0.84 -0.08 -1.24 l0.12 -16.68 c0 -1.72 0.2 -1.64 -1.52 -1.6 c-1.36 0 -2.72 0.04 -4.08 0.08 c-1 0.04 -2.04 0.16 -3.04 0.32 c-0.12 0 -0.28 0.2 -0.32 0.36 c0 0.24 0.04 0.48 0.04 0.72 c0 2.16 -0.08 4.36 0.04 6.56 c0.2 3.12 0.56 6.2 1.2 9.28 c0.12 0.6 0.16 1.2 0.16 1.8 c0 0.68 -0.4 1.12 -1.08 1.32 c-0.52 0.12 -1.2 -0.2 -1.52 -0.76 c-0.12 -0.24 -0.2 -0.52 -0.28 -0.76 c-0.28 -1.52 -0.56 -3.04 -0.8 -4.56 c-0.4 -2.72 -0.64 -5.44 -0.64 -8.2 c0 -1.2 -0.12 -2.36 -0.12 -3.52 c0.04 -2.2 0.16 -4.36 0.24 -6.56 c0.04 -0.68 0.16 -1.4 0.24 -2.08 c0.08 -0.48 0.28 -0.88 0.72 -1.16 c0.88 -0.52 2 0 2.12 1.04 c0.04 0.4 0 0.84 0 1.24 c0 0.56 -0.04 1.12 -0.04 1.68 c0 0.36 0.16 0.48 0.52 0.48 s0.76 0 1.12 -0.04 c1.68 -0.24 3.36 -0.24 5.04 -0.24 l0.96 0 c1.24 0 1.28 0.04 1.28 -1.2 l0 -1.56 c0 -0.28 0.04 -0.56 0.12 -0.8 c0.24 -0.64 0.8 -1 1.44 -0.96 c0.56 0.04 1.08 0.4 1.24 0.96 c0.08 0.36 0.12 0.76 0.12 1.12 c0 1.28 -0.04 2.6 -0.04 3.92 z M75.044 23.68 l0.04 0 c0.08 -2.16 0.16 -4.32 0.2 -6.44 c0.04 -0.8 0 -1.6 0.04 -2.4 c0.04 -0.72 0.12 -1.48 0.24 -2.2 c0.2 -1.08 0.8 -1.68 1.84 -1.84 c2.2 -0.32 4.36 -0.56 6.56 -0.52 c0.4 0 0.84 0.04 1.24 0.16 c0.6 0.2 1.04 0.8 0.96 1.4 c-0.04 0.6 -0.36 1.08 -0.96 1.24 c-0.44 0.12 -0.88 0.2 -1.36 0.2 c-1.64 -0.04 -3.24 0.12 -4.88 0.32 c-0.44 0.04 -0.56 0.2 -0.6 0.64 c-0.08 2 -0.2 4 -0.2 6 l0 0.56 c0 0.24 0.2 0.44 0.44 0.44 l1.36 -0.24 c0.44 -0.08 0.84 -0.04 1.24 0.16 c0.96 0.52 1.04 1.84 0.12 2.44 c-0.28 0.16 -0.6 0.28 -0.92 0.36 c-0.52 0.12 -1.08 0.2 -1.64 0.32 c-0.48 0.12 -0.68 0.28 -0.64 0.76 c0.04 1.28 0.08 2.6 0.16 3.88 c0 0.36 0.04 0.68 0.04 1 c0.08 2.2 0.32 4.36 0.56 6.56 c0.08 0.76 0.12 1.56 0.12 2.36 c0 0.92 -0.48 1.52 -1.24 1.6 s-1.44 -0.52 -1.6 -1.44 c-0.08 -0.6 -0.2 -1.2 -0.24 -1.8 c-0.16 -1.56 -0.24 -3.16 -0.4 -4.72 c-0.2 -2 -0.28 -4 -0.32 -6.04 c-0.04 -0.92 -0.12 -1.84 -0.16 -2.76 z M92.185 23.16 l0.04 0 l0 -7.96 c0 -0.48 0 -0.92 0.04 -1.4 c0.04 -0.32 0.12 -0.64 0.24 -0.96 c0.2 -0.52 0.68 -0.72 1.24 -0.76 c0.52 0 0.96 0.24 1.24 0.76 c0.2 0.36 0.28 0.76 0.28 1.2 c-0.08 1.48 -0.12 2.96 -0.12 4.48 c-0.04 2 -0.04 4 0 6 c0.04 3.52 0.2 7 0.28 10.48 c0.04 0.84 0.12 1.68 0.16 2.52 c0 0.36 -0.08 0.76 -0.16 1.08 c-0.2 0.64 -0.68 0.88 -1.28 0.92 c-0.56 0 -1.04 -0.24 -1.24 -0.76 c-0.2 -0.36 -0.28 -0.76 -0.32 -1.2 c-0.08 -0.6 -0.04 -1.2 -0.08 -1.8 l-0.24 -6.28 c-0.08 -2.12 -0.04 -4.2 -0.08 -6.32 z M106.686 37 l0.04 -10.36 l0.04 0 l0 -8.4 l0 -2.24 c0 -0.76 -0.04 -1 -0.96 -0.88 c-0.84 0.12 -1.76 0.16 -2.64 0.12 c-0.84 -0.04 -1.32 -0.44 -1.52 -1.2 c-0.12 -0.56 0.16 -1.28 0.68 -1.52 c0.4 -0.12 0.8 -0.24 1.24 -0.28 c1.96 -0.12 3.88 -0.2 5.84 -0.32 c0.76 -0.04 1.52 -0.08 2.24 -0.16 c0.56 -0.04 1.12 -0.04 1.68 0.12 c0.56 0.2 0.92 0.56 1 1.2 c0.08 0.6 -0.2 1.08 -0.72 1.36 c-0.28 0.16 -0.64 0.24 -0.96 0.28 c-0.4 0.04 -0.84 0 -1.24 0.04 c-0.48 0.04 -0.92 0.08 -1.36 0.2 c-0.16 0.04 -0.28 0.24 -0.36 0.4 c-0.04 0.16 0 0.36 0 0.56 c0.04 3 -0.08 6.04 -0.08 9.08 l0 12.04 c0 0.4 0 0.84 -0.04 1.24 c-0.08 0.76 -0.72 1.36 -1.4 1.32 c-0.64 0 -1.28 -0.56 -1.4 -1.2 c-0.08 -0.48 -0.08 -0.92 -0.08 -1.4 z M138.00799999999998 14.760000000000002 c1.28 -1.2 2.84 -1.84 4.6 -1.8 c1.6 0 3 0.56 4.12 1.76 c1.24 1.32 1.52 2.96 1.24 4.68 c-0.12 0.68 -0.8 1.16 -1.4 1.16 c-0.72 0 -1.32 -0.52 -1.4 -1.28 c-0.04 -0.32 0 -0.64 -0.04 -1 c-0.08 -1.6 -1.52 -2.68 -3.12 -2.32 c-1.28 0.28 -2.32 1 -3 2.12 c-1.08 1.84 -1.24 3.76 -0.28 5.76 c0.52 1.04 1.28 1.92 2 2.84 c0.84 1 1.72 2 2.48 3.04 c0.56 0.76 1 1.56 1.48 2.36 c0.56 0.96 0.84 2 0.96 3.08 c0.32 2.72 -1.92 5.28 -4.68 5.36 c-0.76 0 -1.48 -0.2 -2.12 -0.56 c-1.48 -0.8 -2.2 -2.12 -2.4 -3.76 c-0.04 -0.36 0 -0.72 0.2 -1.04 c0.6 -0.84 1.68 -0.96 2.36 -0.08 c0.12 0.2 0.2 0.44 0.28 0.64 c0.12 0.32 0.2 0.64 0.32 0.92 c0.52 1.08 1.96 1.16 2.64 0.16 c0.4 -0.6 0.52 -1.28 0.32 -2 c-0.2 -0.76 -0.56 -1.48 -0.96 -2.16 c-0.84 -1.32 -1.84 -2.48 -2.8 -3.68 c-0.68 -0.84 -1.36 -1.68 -2 -2.52 c-0.56 -0.8 -1 -1.68 -1.28 -2.64 c-1 -3.52 -0.16 -6.56 2.48 -9.04 z M159.22899999999998 37 l0.04 -10.36 l0.04 0 l0 -8.4 l0 -2.24 c0 -0.76 -0.04 -1 -0.96 -0.88 c-0.84 0.12 -1.76 0.16 -2.64 0.12 c-0.84 -0.04 -1.32 -0.44 -1.52 -1.2 c-0.12 -0.56 0.16 -1.28 0.68 -1.52 c0.4 -0.12 0.8 -0.24 1.24 -0.28 c1.96 -0.12 3.88 -0.2 5.84 -0.32 c0.76 -0.04 1.52 -0.08 2.24 -0.16 c0.56 -0.04 1.12 -0.04 1.68 0.12 c0.56 0.2 0.92 0.56 1 1.2 c0.08 0.6 -0.2 1.08 -0.72 1.36 c-0.28 0.16 -0.64 0.24 -0.96 0.28 c-0.4 0.04 -0.84 0 -1.24 0.04 c-0.48 0.04 -0.92 0.08 -1.36 0.2 c-0.16 0.04 -0.28 0.24 -0.36 0.4 c-0.04 0.16 0 0.36 0 0.56 c0.04 3 -0.08 6.04 -0.08 9.08 l0 12.04 c0 0.4 0 0.84 -0.04 1.24 c-0.08 0.76 -0.72 1.36 -1.4 1.32 c-0.64 0 -1.28 -0.56 -1.4 -1.2 c-0.08 -0.48 -0.08 -0.92 -0.08 -1.4 z M186.17 31.880000000000003 c0.6 -1.6 0.8 -3.32 0.8 -5 c0 -2.2 -0.36 -4.24 -1.16 -6.2 c-0.48 -1.24 -1.16 -2.36 -2.12 -3.24 c-0.4 -0.4 -0.88 -0.76 -1.36 -1 c-1.08 -0.56 -2.16 -0.48 -3.16 0.2 c-0.56 0.36 -1.04 0.84 -1.4 1.36 c-0.52 0.72 -0.92 1.52 -1.2 2.4 c-1.16 3.56 -1 7.16 0.32 10.68 c0.44 1.2 1.04 2.28 1.88 3.24 c0.44 0.48 0.96 0.88 1.52 1.2 c1.28 0.76 2.52 0.6 3.64 -0.28 c0.52 -0.44 0.96 -0.92 1.32 -1.48 s0.64 -1.2 0.92 -1.88 z M189.80999999999997 24.28 l0.2 2.32 c-0.04 2.4 -0.36 4.48 -1.12 6.48 c-0.6 1.52 -1.4 2.92 -2.6 4.08 c-1.16 1.08 -2.56 1.72 -4.16 1.84 c-0.64 0.04 -1.36 -0.16 -2.04 -0.36 c-1.44 -0.4 -2.56 -1.28 -3.52 -2.36 c-1.16 -1.28 -1.92 -2.76 -2.52 -4.32 c-1.16 -3 -1.4 -6.08 -1.04 -9.24 c0.2 -1.84 0.72 -3.64 1.64 -5.28 c0.48 -0.92 1.08 -1.76 1.84 -2.48 c2.56 -2.32 5.64 -2.52 8.52 -0.32 c1.32 1.04 2.32 2.36 3.08 3.88 c0.92 1.84 1.56 3.72 1.72 5.76 z M207.59099999999998 23.96 c0.36 -0.92 0.56 -1.88 0.56 -2.88 c0 -0.36 0 -0.76 -0.08 -1.12 c-0.12 -0.6 -0.28 -1.24 -0.56 -1.84 c-0.4 -0.92 -1.12 -1.24 -2.04 -0.92 c-0.4 0.12 -0.8 0.32 -1.12 0.6 c-0.48 0.4 -0.96 0.88 -1.32 1.4 c-0.52 0.8 -0.96 1.6 -1.32 2.48 c-1.04 2.64 -1.52 5.44 -1.76 8.28 c-0.04 0.24 0 0.48 0 0.68 s0.2 0.32 0.4 0.28 c1.08 -0.44 2.08 -1 3.04 -1.68 c1.92 -1.36 3.32 -3.12 4.2 -5.28 z M199.271 17.28 c-0.12 0.76 -0.16 1.56 -0.08 2.52 l1.16 -1.96 c0.68 -1.16 1.64 -2.12 2.8 -2.84 c1.12 -0.72 2.32 -1 3.64 -0.84 c1.44 0.2 2.48 1.04 3.2 2.24 c0.68 1.12 1 2.32 1.12 3.6 c0.16 1.84 -0.16 3.6 -0.88 5.32 c-1.36 3.2 -3.64 5.56 -6.64 7.32 l-0.96 0.56 c-0.04 0.04 -0.08 0.08 -0.08 0.12 c0.04 0.08 0.08 0.16 0.12 0.2 c0.64 0.28 1.24 0.32 1.92 0.08 c0.4 -0.12 0.76 -0.28 1.2 -0.36 c0.8 -0.16 1.4 0.2 1.64 0.92 c0.24 0.64 0 1.32 -0.64 1.68 c-1.24 0.72 -2.56 1.16 -4 0.8 c-0.28 -0.08 -0.56 -0.16 -0.84 -0.16 c-0.48 -0.08 -0.88 -0.56 -1.4 -0.32 c-0.2 0.48 0.08 0.92 0.16 1.36 c0.08 0.36 0.04 0.76 -0.12 1.08 c-0.44 0.92 -1.64 1.12 -2.36 0.4 c-0.28 -0.28 -0.48 -0.68 -0.56 -1.08 c-0.28 -1.32 -0.56 -2.64 -0.8 -3.96 c-0.36 -2.08 -0.56 -4.16 -0.68 -6.28 c-0.12 -1.56 -0.12 -3.16 -0.16 -4.76 c-0.04 -2.24 0.2 -4.48 0.32 -6.68 c0.04 -0.68 0.16 -1.32 0.28 -1.96 c0.12 -0.6 0.44 -1.04 1.04 -1.2 c1 -0.32 2 0.48 1.92 1.56 c-0.08 0.88 -0.2 1.76 -0.32 2.64 z M217.45199999999997 30.32 c-0.2 -2.12 -0.24 -4.28 -0.28 -6.64 c0 -1.28 0 -2.76 0.12 -4.24 c0.16 -2.08 0.44 -4.16 0.84 -6.24 c0.08 -0.32 0.2 -0.6 0.36 -0.92 c0.28 -0.68 0.8 -1.12 1.56 -1.2 c0.6 -0.08 1.2 -0.16 1.8 -0.2 c1.96 -0.12 3.92 0.12 5.88 0.2 c0.72 0.04 1.32 0.32 1.64 1.08 c0.28 0.76 -0.24 1.56 -0.76 1.76 c-0.56 0.2 -1.12 0.24 -1.64 0.16 c-1.6 -0.24 -3.2 -0.2 -4.76 -0.2 c-0.24 0 -0.48 0 -0.72 0.04 c-0.32 0.04 -0.48 0.2 -0.56 0.52 c-0.28 1.88 -0.64 3.76 -0.64 5.68 c0 0.32 0.2 0.48 0.52 0.48 c0.24 -0.04 0.48 -0.08 0.72 -0.08 c0.16 -0.04 0.36 -0.08 0.56 -0.08 c0.8 0.04 1.44 0.64 1.52 1.36 c0.04 0.64 -0.44 1.36 -1.2 1.52 c-0.6 0.16 -1.2 0.24 -1.8 0.36 c-0.36 0.04 -0.48 0.2 -0.48 0.56 l0 1.8 c0 1.08 0.12 2.16 0.2 3.2 c0.2 2.52 0.56 5 1.16 7.48 c0.04 0.24 0.12 0.52 0.24 0.8 c0.12 0.44 0.24 0.56 0.68 0.52 c0.52 0 1 -0.08 1.52 -0.12 c1.04 -0.12 2.04 -0.28 3.04 -0.36 c0.44 -0.04 0.84 0.04 1.24 0.12 c0.64 0.16 0.92 0.64 1 1.24 c0.08 0.48 -0.28 1.12 -0.8 1.36 c-0.32 0.12 -0.72 0.2 -1.08 0.24 c-1.24 0.16 -2.48 0.32 -3.72 0.44 c-0.72 0.08 -1.4 0.12 -2.12 0.12 c-1.04 0 -1.8 -0.48 -2.16 -1.44 c-0.4 -1 -0.68 -2.04 -0.92 -3.08 c-0.48 -2.04 -0.72 -4.12 -0.96 -6.24 z"/></g><g id="SvgjsG1242" featureKey="sloganFeature-0" transform="matrix(0.5159253149770062,0,0,0.5159253149770062,89.91446002599268,196.06270810800652)" fill="#fff"><path d="M12.412 5.888999999999999 l-4.6387 7.3535 l0 6.7578 l-2.9395 0 l0 -6.6895 l-4.668 -7.4219 l3.2422 0 l2.8809 4.8047 l2.8906 -4.8047 l3.2324 0 z M22.9150671875 20.19531 c-4.1504 0 -7.2168 -2.832 -7.2168 -7.2559 c0 -4.4336 3.0664 -7.2461 7.2168 -7.2461 c4.1406 0 7.207 2.8125 7.207 7.2461 c0 4.4238 -3.0664 7.2559 -7.207 7.2559 z M22.9150671875 17.5098 c2.4316 0 4.2969 -1.709 4.2969 -4.5703 c0 -2.8516 -1.8652 -4.5508 -4.2969 -4.5508 s-4.2969 1.6992 -4.2969 4.5508 c0 2.8613 1.8652 4.5703 4.2969 4.5703 z M40.31251875 20.19531 c-3.0957 0 -5.5176 -1.582 -5.5176 -5.1367 l0 -9.1699 l2.9297 0 l0 8.7695 c0 2.1484 1.1426 2.9492 2.5879 2.9492 c1.4551 0 2.6074 -0.81055 2.6074 -2.9492 l0 -8.7695 l2.9297 0 l0 9.1699 c0 3.5547 -2.4316 5.1367 -5.5371 5.1367 z M58.9306203125 20 l-3.6719 -6.2109 l-0.84961 0 l0 6.2109 l-2.9297 0 l0 -14.111 l5.1172 0 c3.1934 0 4.541 1.8848 4.541 4.2188 c0 1.8945 -1.0742 3.125 -2.9883 3.5352 l4.248 6.3574 l-3.4668 0 z M54.4092203125 8.32 l0 3.3691 l1.7285 0 c1.5625 0 2.1973 -0.66406 2.1973 -1.6797 c0 -1.0059 -0.63477 -1.6895 -2.1973 -1.6895 l-1.7285 0 z M71.503934375 20.19531 c-3.0273 0 -5.3906 -1.4551 -5.8203 -4.1016 l3.0273 -0.69336 c0.19531 1.582 1.3574 2.4023 2.9102 2.4023 c1.1914 0 2.1387 -0.52734 2.1289 -1.7188 c-0.0097656 -1.3281 -1.5723 -1.748 -3.291 -2.2754 c-2.0703 -0.64453 -4.2871 -1.4063 -4.2871 -4.0039 c0 -2.627 2.1484 -4.1113 4.9805 -4.1113 c2.4805 0 4.9805 1.0059 5.5469 3.7109 l-2.832 0.70313 c-0.26367 -1.4063 -1.2109 -2.0215 -2.5391 -2.0215 c-1.1816 0 -2.1875 0.48828 -2.1875 1.6504 c0 1.084 1.3867 1.4453 2.9883 1.9238 c2.1289 0.64453 4.6484 1.4648 4.6484 4.2773 c0 2.998 -2.5098 4.2578 -5.2734 4.2578 z M97.538578125 8.467 l-5.3711 0 l0 3.2031 l4.6387 0 l0 2.5488 l-4.6387 0 l0 5.7813 l-2.9492 0 l0 -14.111 l8.3203 0 l0 2.5781 z M102.3095984375 20 l0 -14.111 l2.9297 0 l0 14.111 l-2.9297 0 z M119.336171875 5.888999999999999 l0 2.5781 l-3.3496 0 l0 11.533 l-2.9004 0 l0 -11.533 l-3.3691 0 l0 -2.5781 l9.6191 0 z M133.4620703125 5.888999999999999 l2.9199 0 l0 14.111 l-3.3887 0 l-6.25 -10.088 l0 10.088 l-2.9199 0 l0 -14.111 l3.3496 0 l6.2891 10.029 l0 -10.029 z M150.488515625 8.467 l-5.2344 0 l0 3.2031 l4.6387 0 l0 2.5488 l-4.6387 0 l0 3.1934 l5.2344 0 l0 2.5879 l-8.1836 0 l0 -14.111 l8.1836 0 l0 2.5781 z M160.4638953125 20.19531 c-3.0273 0 -5.3906 -1.4551 -5.8203 -4.1016 l3.0273 -0.69336 c0.19531 1.582 1.3574 2.4023 2.9102 2.4023 c1.1914 0 2.1387 -0.52734 2.1289 -1.7188 c-0.0097656 -1.3281 -1.5723 -1.748 -3.291 -2.2754 c-2.0703 -0.64453 -4.2871 -1.4063 -4.2871 -4.0039 c0 -2.627 2.1484 -4.1113 4.9805 -4.1113 c2.4805 0 4.9805 1.0059 5.5469 3.7109 l-2.832 0.70313 c-0.26367 -1.4063 -1.2109 -2.0215 -2.5391 -2.0215 c-1.1816 0 -2.1875 0.48828 -2.1875 1.6504 c0 1.084 1.3867 1.4453 2.9883 1.9238 c2.1289 0.64453 4.6484 1.4648 4.6484 4.2773 c0 2.998 -2.5098 4.2578 -5.2734 4.2578 z M175.40041875 20.19531 c-3.0273 0 -5.3906 -1.4551 -5.8203 -4.1016 l3.0273 -0.69336 c0.19531 1.582 1.3574 2.4023 2.9102 2.4023 c1.1914 0 2.1387 -0.52734 2.1289 -1.7188 c-0.0097656 -1.3281 -1.5723 -1.748 -3.291 -2.2754 c-2.0703 -0.64453 -4.2871 -1.4063 -4.2871 -4.0039 c0 -2.627 2.1484 -4.1113 4.9805 -4.1113 c2.4805 0 4.9805 1.0059 5.5469 3.7109 l-2.832 0.70313 c-0.26367 -1.4063 -1.2109 -2.0215 -2.5391 -2.0215 c-1.1816 0 -2.1875 0.48828 -2.1875 1.6504 c0 1.084 1.3867 1.4453 2.9883 1.9238 c2.1289 0.64453 4.6484 1.4648 4.6484 4.2773 c0 2.998 -2.5098 4.2578 -5.2734 4.2578 z M198.9843625 5.888999999999999 c2.7637 0 4.4824 2.0508 4.4824 4.5605 c0 2.5684 -1.7188 4.4922 -4.4824 4.4922 l-2.9395 0 l0 5.0586 l-2.9297 0 l0 -14.111 l5.8691 0 z M198.4960625 12.4902 c1.4648 0 2.1484 -0.81055 2.1484 -2.0801 c0 -1.2207 -0.68359 -2.0703 -2.1484 -2.0703 l-2.4512 0 l0 4.1504 l2.4512 0 z M217.6420703125 20 l-1.0254 -2.9102 l-5.9277 0 l-1.0254 2.9102 l-2.998 0 l5.1953 -14.111 l3.584 0 l5.1953 14.111 l-2.998 0 z M211.5478703125 14.6387 l4.209 0 l-2.0996 -5.9863 z M232.480425 20 l-3.6719 -6.2109 l-0.84961 0 l0 6.2109 l-2.9297 0 l0 -14.111 l5.1172 0 c3.1934 0 4.541 1.8848 4.541 4.2188 c0 1.8945 -1.0742 3.125 -2.9883 3.5352 l4.248 6.3574 l-3.4668 0 z M227.959025 8.32 l0 3.3691 l1.7285 0 c1.5625 0 2.1973 -0.66406 2.1973 -1.6797 c0 -1.0059 -0.63477 -1.6895 -2.1973 -1.6895 l-1.7285 0 z M248.5500390625 5.888999999999999 l0 2.5781 l-3.3496 0 l0 11.533 l-2.9004 0 l0 -11.533 l-3.3691 0 l0 -2.5781 l9.6191 0 z M262.6759375 5.888999999999999 l2.9199 0 l0 14.111 l-3.3887 0 l-6.25 -10.088 l0 10.088 l-2.9199 0 l0 -14.111 l3.3496 0 l6.2891 10.029 l0 -10.029 z M279.7023828125 8.467 l-5.2344 0 l0 3.2031 l4.6387 0 l0 2.5488 l-4.6387 0 l0 3.1934 l5.2344 0 l0 2.5879 l-8.1836 0 l0 -14.111 l8.1836 0 l0 2.5781 z M292.4413625 20 l-3.6719 -6.2109 l-0.84961 0 l0 6.2109 l-2.9297 0 l0 -14.111 l5.1172 0 c3.1934 0 4.541 1.8848 4.541 4.2188 c0 1.8945 -1.0742 3.125 -2.9883 3.5352 l4.248 6.3574 l-3.4668 0 z M287.9199625 8.32 l0 3.3691 l1.7285 0 c1.5625 0 2.1973 -0.66406 2.1973 -1.6797 c0 -1.0059 -0.63477 -1.6895 -2.1973 -1.6895 l-1.7285 0 z M305.0146765625 20.19531 c-3.0273 0 -5.3906 -1.4551 -5.8203 -4.1016 l3.0273 -0.69336 c0.19531 1.582 1.3574 2.4023 2.9102 2.4023 c1.1914 0 2.1387 -0.52734 2.1289 -1.7188 c-0.0097656 -1.3281 -1.5723 -1.748 -3.291 -2.2754 c-2.0703 -0.64453 -4.2871 -1.4063 -4.2871 -4.0039 c0 -2.627 2.1484 -4.1113 4.9805 -4.1113 c2.4805 0 4.9805 1.0059 5.5469 3.7109 l-2.832 0.70313 c-0.26367 -1.4063 -1.2109 -2.0215 -2.5391 -2.0215 c-1.1816 0 -2.1875 0.48828 -2.1875 1.6504 c0 1.084 1.3867 1.4453 2.9883 1.9238 c2.1289 0.64453 4.6484 1.4648 4.6484 4.2773 c0 2.998 -2.5098 4.2578 -5.2734 4.2578 z"/></g>
			</g>
		</svg>
	