
        <svg xmlns="http://www.w3.org/2000/svg" xmlns:xlink="http://www.w3.org/1999/xlink" version="1.1" width="3171.4285714285716" 
        height="1605.6553827053604" viewBox="0 0 3171.4285714285716 1605.6553827053604">
			<rect fill="#111111" width="3171.4285714285716" height="1605.6553827053604"/>
			<g transform="scale(8.571428571428573) translate(10, 10)">
				<defs id="SvgjsDefs1020"></defs><g id="SvgjsG1021" featureKey="cWd8YO-0" transform="matrix(1.0127314814814816,0,0,1.0127314814814816,383.22106481481484,-353.44328703703707)" fill="#aa96da"><g xmlns="http://www.w3.org/2000/svg"><path d="M-162.3,382.4c0,18.3-8.6,28.1-42.7,56.4c-23.6-19.7-35-30.4-39.8-41.3h25.1l3.3,4.8c0.4,0.5,1,0.8,1.6,0.6   c0.6-0.1,1.1-0.7,1.2-1.3l2.7-17.3l6.1,37.1c0.1,0.8,0.8,1.3,1.5,1.3h0c0.8,0,1.4-0.5,1.5-1.3l5.1-27l0.6,1.9   c0.2,0.6,0.8,1.1,1.5,1.1h14.4c0.7,1.6,2.2,2.7,4.1,2.7c2.5,0,4.4-2,4.4-4.4c0-2.5-2-4.4-4.4-4.4c-2,0-3.6,1.3-4.2,3.1h-13.1   l-2.2-6.6c-0.2-0.7-0.8-1.2-1.6-1.1c-0.7,0-1.3,0.6-1.4,1.3l-4.6,24.3l-6.2-38c-0.1-0.8-0.8-1.3-1.5-1.3h0c-0.8,0-1.4,0.6-1.5,1.3   l-3.6,23l-1.5-2.2c-0.3-0.4-0.8-0.7-1.3-0.7h-27.1c-1.2-3.8-1.7-7.7-1.7-12c0-19.3,11.2-28.1,21.5-28.1c10.6,0,19,10.3,19.1,10.4   c0.5,0.6,1.3,1,2.1,1h0c0.8,0,1.6-0.4,2.1-1c0.1-0.1,8.4-10.4,19.1-10.4C-173.5,354.3-162.3,363.1-162.3,382.4 M-157,382.4   c0-21.9-13.5-33.4-26.8-33.4c-9.8,0-17.6,6.5-21.2,10.2c-3.6-3.6-11.4-10.2-21.2-10.2c-13.3,0-26.8,11.5-26.8,33.4   c0,21.8,11.3,33,46.3,62c0.5,0.4,1.1,0.6,1.7,0.6s1.2-0.2,1.7-0.6C-168.3,415.4-157,404.2-157,382.4"></path></g></g><g id="SvgjsG1022" featureKey="TZbA6h-0" transform="matrix(2.3261997865026944,0,0,2.3261997865026944,-1.814435212309744,101.87970360616947)" fill="#fcbad3"><path d="M0.78 20 l0 -2.32 l1.44 0 l0 -8.58 l-1.44 0 l0 -2.32 l6.62 0 c3.66 0 4.96 1.64 4.96 3.76 c0 1.98 -1.12 3.04 -2.34 3.62 c0.52 0.28 0.9 0.8 1.24 1.74 c0.28 0.78 0.4 1.5 1.7 1.5 l0.16 0 l-0.58 2.72 c-0.28 0.04 -0.54 0.06 -0.78 0.06 c-2.52 0 -3.16 -1.82 -3.66 -3.16 c-0.58 -1.82 -0.78 -1.98 -1.9 -1.98 l-0.62 0 l0 2.64 l1.44 0 l0 2.32 l-6.24 0 z M5.58 12.52 l1.74 0 c1.22 0 1.68 -0.76 1.68 -1.54 c0 -1.22 -0.56 -1.68 -1.68 -1.68 l-1.74 0 l0 3.22 z M14.28 20 l0 -2.32 l1.44 0 l0 -8.58 l-1.44 0 l0 -2.32 l6.24 0 l0 2.32 l-1.44 0 l0 8.58 l1.44 0 l0 2.32 l-6.24 0 z M31.08 15.36 l3.06 0.86 c-0.38 2.3 -2.1 4.06 -5.62 4.06 c-4.64 0 -6.58 -3.04 -6.58 -7 c0 -4.26 2.3 -6.78 6.6 -6.78 c3.44 0 5.44 1.6 5.44 3.96 c0 0.12 -0.02 0.22 -0.02 0.34 l-3.3 0.74 l0 -0.28 c0 -1.24 -0.54 -1.98 -2.2 -1.98 c-2.3 0 -2.98 1.34 -2.98 3.98 c0 2.92 0.9 4.24 2.96 4.24 c1.3 0 2.62 -0.56 2.64 -2.14 z M35.300000000000004 20 l0 -2.32 l1.44 0 l0 -8.58 l-1.44 0 l0 -2.32 l6.24 0 l0 2.32 l-1.44 0 l0 2.98 l5.4 0 l0 -2.98 l-1.44 0 l0 -2.32 l6.24 0 l0 2.32 l-1.44 0 l0 8.58 l1.44 0 l0 2.32 l-6.24 0 l0 -2.32 l1.44 0 l0 -3.08 l-5.4 0 l0 3.08 l1.44 0 l0 2.32 l-6.24 0 z M51.86 20 l0 -2.32 l1.44 0 l0 -8.58 l-1.48 0 l0 -2.32 l10.26 0 l0 4.26 l-2.52 0 l0 -1.74 l-2.9 0 l0 2.98 l3.96 0 l0 2.52 l-3.96 0 l0 2.88 l1.64 0 l0 2.32 l-6.44 0 z M63.2 20 l0 -2.32 l1.44 0 l0 -8.58 l-1.44 0 l0 -2.32 l6.24 0 l0 2.32 l-1.44 0 l0 8.58 l1.44 0 l0 2.32 l-6.24 0 z M73.64 20 l0 -2.32 l1.44 0 l0 -8.38 l-2.02 0 l0 2.04 l-2.52 0 l0 -4.56 l12.44 0 l0 4.56 l-2.52 0 l0 -2.04 l-2.02 0 l0 8.38 l1.44 0 l0 2.32 l-6.24 0 z M87.64 16.34 l3.3 -0.68 c0.02 1.4 1.1 1.84 2.2 1.84 c1.04 0 1.64 -0.38 1.64 -1 c0 -2.1 -6.78 -1.14 -6.78 -5.94 c0 -2.64 2.04 -4.06 5.1 -4.06 c3 0 4.92 1.4 4.92 3.42 l0 0.16 l-3.3 0.68 c-0.02 -0.54 -0.14 -1.48 -1.7 -1.48 c-1.08 0 -1.62 0.44 -1.62 1.04 c0 2.18 6.78 1.04 6.78 5.82 c0 2.4 -1.7 4.14 -5.08 4.14 c-3.5 0 -5.46 -1.84 -5.46 -3.76 l0 -0.18 z  M102.22 20 l0 -2.32 l1.44 0 l0 -8.38 l-2.02 0 l0 2.04 l-2.52 0 l0 -4.56 l12.44 0 l0 4.56 l-2.52 0 l0 -2.04 l-2.02 0 l0 8.38 l1.44 0 l0 2.32 l-6.24 0 z M119.02 20.28 c-4.3 0 -6.52 -2.92 -6.52 -6.92 c0 -4.1 2.32 -6.86 6.64 -6.86 c4.08 0 6.54 2.46 6.54 6.7 c0 4.1 -2.32 7.08 -6.66 7.08 z M119.08 17.5 c1.88 0 3.06 -1.24 3.06 -4.16 c0 -2.88 -1.14 -4.06 -3.02 -4.06 c-1.94 0 -3.08 1.26 -3.08 4.1 c0 2.88 1.16 4.12 3.04 4.12 z M127.08 20 l0 -2.32 l1.44 0 l0 -8.58 l-1.44 0 l0 -2.32 l6.62 0 c3.66 0 4.96 1.64 4.96 3.76 c0 1.98 -1.12 3.04 -2.34 3.62 c0.52 0.28 0.9 0.8 1.24 1.74 c0.28 0.78 0.4 1.5 1.7 1.5 l0.16 0 l-0.58 2.72 c-0.28 0.04 -0.54 0.06 -0.78 0.06 c-2.52 0 -3.16 -1.82 -3.66 -3.16 c-0.58 -1.82 -0.78 -1.98 -1.9 -1.98 l-0.62 0 l0 2.64 l1.44 0 l0 2.32 l-6.24 0 z M131.88 12.52 l1.74 0 c1.22 0 1.68 -0.76 1.68 -1.54 c0 -1.22 -0.56 -1.68 -1.68 -1.68 l-1.74 0 l0 3.22 z M140.56 20 l0 -2.32 l1.48 0 l0 -8.58 l-1.48 0 l0 -2.32 l10.56 0 l0 4.26 l-2.52 0 l0 -1.74 l-3.22 0 l0 2.78 l3.78 0 l0 2.52 l-3.78 0 l0 2.88 l3.34 0 l0 -1.94 l2.52 0 l0 4.46 l-10.68 0 z"></path></g><g id="SvgjsG1023" featureKey="hKLqjk-0" transform="matrix(0.522844187036,0,0,0.522844187036,23.937258819718334,156.70994240094757)" fill="#aa96da"><path d="M11.08 5.84 l-4.54 8.12 l0 5.46 c0 0.24 -0.08666 0.44666 -0.26 0.62 s-0.38 0.26 -0.62 0.26 s-0.44666 -0.08666 -0.62 -0.26 s-0.26 -0.38 -0.26 -0.62 l0 -5.46 l-4.54 -8.12 c-0.08 -0.13334 -0.12 -0.28 -0.12 -0.44 c0 -0.24 0.08666 -0.44666 0.26 -0.62 s0.38 -0.26 0.62 -0.26 c0.16 0 0.31 0.04 0.45 0.12 s0.25 0.18666 0.33 0.32 l3.88 6.94 l3.88 -6.94 c0.08 -0.13334 0.19 -0.24 0.33 -0.32 s0.29 -0.12 0.45 -0.12 c0.24 0 0.44666 0.08666 0.62 0.26 s0.26 0.38 0.26 0.62 c0 0.16 -0.04 0.30666 -0.12 0.44 z M35.28 20.3 c-1.0933 0 -2.12 -0.20666 -3.08 -0.62 s-1.7967 -0.97668 -2.51 -1.69 s-1.2767 -1.55 -1.69 -2.51 s-0.62 -1.9867 -0.62 -3.08 c0 -1.08 0.20666 -2.1 0.62 -3.06 s0.97668 -1.7967 1.69 -2.51 s1.55 -1.2767 2.51 -1.69 s1.9867 -0.62 3.08 -0.62 c1.08 0 2.1 0.20666 3.06 0.62 s1.7967 0.97668 2.51 1.69 s1.2767 1.55 1.69 2.51 s0.62 1.98 0.62 3.06 c0 1.0933 -0.20666 2.12 -0.62 3.08 s-0.97668 1.7967 -1.69 2.51 s-1.55 1.2767 -2.51 1.69 s-1.98 0.62 -3.06 0.62 z M35.28 6.279999999999999 c-0.84 0 -1.6333 0.16 -2.38 0.48 s-1.4 0.75666 -1.96 1.31 s-1 1.2033 -1.32 1.95 s-0.48 1.54 -0.48 2.38 s0.16 1.6333 0.48 2.38 s0.76 1.4 1.32 1.96 s1.2133 1 1.96 1.32 s1.54 0.48 2.38 0.48 s1.6333 -0.16 2.38 -0.48 s1.3967 -0.76 1.95 -1.32 s0.99 -1.2133 1.31 -1.96 s0.48 -1.54 0.48 -2.38 s-0.16 -1.6333 -0.48 -2.38 s-0.75666 -1.3967 -1.31 -1.95 s-1.2033 -0.99 -1.95 -1.31 s-1.54 -0.48 -2.38 -0.48 z M68.17999999999999 20.3 c-0.84 0 -1.6266 -0.16004 -2.36 -0.48004 s-1.3767 -0.75334 -1.93 -1.3 s-0.99 -1.19 -1.31 -1.93 s-0.48 -1.53 -0.48 -2.37 l0 -8.82 c0 -0.24 0.08666 -0.44666 0.26 -0.62 s0.38668 -0.26 0.64002 -0.26 c0.24 0 0.44666 0.08666 0.62 0.26 s0.26 0.38 0.26 0.62 l0 8.82 c0 0.6 0.11334 1.16 0.34 1.68 s0.53332 0.97334 0.91998 1.36 s0.84332 0.69332 1.37 0.91998 s1.0833 0.34 1.67 0.34 c0.6 0 1.16 -0.11334 1.68 -0.34 s0.97666 -0.53332 1.37 -0.91998 s0.70334 -0.84332 0.93 -1.37 s0.34 -1.0833 0.34 -1.67 l0 -8.82 c0 -0.24 0.08666 -0.44666 0.26 -0.62 s0.38 -0.26 0.62 -0.26 c0.25334 0 0.46668 0.08666 0.64002 0.26 s0.26 0.38 0.26 0.62 l0 8.82 c0 0.84 -0.16 1.63 -0.48 2.37 s-0.75666 1.3833 -1.31 1.93 s-1.2 0.98 -1.94 1.3 s-1.53 0.48 -2.37 0.48 z M98.05999999999999 13.36 l-0.24 -0.000039062 l0.26 -0.46 l3.62 6.06 c0.08 0.14666 0.12 0.3 0.12 0.46 c0 0.24 -0.08666 0.44666 -0.26 0.62 s-0.38 0.26 -0.62 0.26 c-0.16 0 -0.31 -0.04 -0.45 -0.12 s-0.25 -0.18666 -0.33 -0.32 l-3.88 -6.5 l-0.86 0 l0 6.06 c0 0.24 -0.08666 0.44666 -0.26 0.62 s-0.38 0.26 -0.62 0.26 c-0.25334 0 -0.46668 -0.08666 -0.64002 -0.26 s-0.26 -0.38 -0.26 -0.62 l0 -14.02 c0 -0.24 0.08666 -0.44666 0.26 -0.62 s0.38668 -0.26 0.64002 -0.26 l3.52 0 c0.61334 0 1.19 0.11666 1.73 0.35 s1.01 0.55 1.41 0.95 s0.71666 0.86666 0.95 1.4 s0.35 1.1067 0.35 1.72 s-0.11666 1.1867 -0.35 1.72 s-0.55 1 -0.95 1.4 s-0.87 0.71666 -1.41 0.95 s-1.1167 0.35 -1.73 0.35 z M98.05999999999999 6.279999999999999 l-2.64 0 l0 5.3 l2.64 0 c0.36 0 0.70334 -0.07 1.03 -0.21 s0.61 -0.33 0.85 -0.57 s0.43 -0.52 0.57 -0.84 s0.21 -0.66 0.21 -1.02 s-0.07 -0.70334 -0.21 -1.03 s-0.33 -0.61 -0.57 -0.85 s-0.52334 -0.43 -0.85 -0.57 s-0.67 -0.21 -1.03 -0.21 z M124.52 20.3 c-0.61334 0 -1.1867 -0.11668 -1.72 -0.35002 s-1 -0.55 -1.4 -0.95 s-0.71666 -0.86666 -0.95 -1.4 s-0.35 -1.1067 -0.35 -1.72 c0 -0.25334 0.08666 -0.46668 0.26 -0.64002 s0.38668 -0.26 0.64002 -0.26 c0.24 0 0.44666 0.08666 0.62 0.26 s0.26 0.38668 0.26 0.64002 c0 0.36 0.07 0.7 0.21 1.02 s0.33 0.6 0.57 0.84 s0.52 0.43 0.84 0.57 s0.66 0.21 1.02 0.21 s0.70334 -0.07 1.03 -0.21 s0.61 -0.33 0.85 -0.57 s0.43 -0.52 0.57 -0.84 s0.21 -0.66 0.21 -1.02 c0 -0.44 -0.08666 -0.80334 -0.26 -1.09 s-0.41334 -0.53666 -0.72 -0.75 c-0.14666 -0.10666 -0.31332 -0.20332 -0.49998 -0.28998 s-0.38 -0.17666 -0.58 -0.27 c-0.2 -0.08 -0.40666 -0.16 -0.62 -0.24 s-0.43334 -0.16 -0.66 -0.24 c-0.44 -0.16 -0.88334 -0.34 -1.33 -0.54 s-0.84666 -0.45 -1.2 -0.75 s-0.64334 -0.67334 -0.87 -1.12 s-0.34 -0.99666 -0.34 -1.65 c0 -0.61334 0.11666 -1.1867 0.35 -1.72 s0.55 -1 0.95 -1.4 s0.86666 -0.71666 1.4 -0.95 s1.1067 -0.35 1.72 -0.35 s1.19 0.11666 1.73 0.35 s1.01 0.55 1.41 0.95 s0.71666 0.86666 0.95 1.4 s0.35 1.1067 0.35 1.72 c0 0.24 -0.08666 0.44666 -0.26 0.62 s-0.38668 0.26 -0.64002 0.26 c-0.24 0 -0.44666 -0.08666 -0.62 -0.26 s-0.26 -0.38 -0.26 -0.62 c0 -0.36 -0.07 -0.70334 -0.21 -1.03 s-0.33 -0.61 -0.57 -0.85 s-0.52334 -0.43 -0.85 -0.57 s-0.67 -0.21 -1.03 -0.21 s-0.7 0.07 -1.02 0.21 s-0.6 0.33 -0.84 0.57 s-0.43 0.52334 -0.57 0.85 s-0.21 0.67 -0.21 1.03 c0 0.4 0.08334 0.73334 0.25 1 s0.40332 0.5 0.70998 0.7 c0.32 0.2 0.68 0.38 1.08 0.54 l0.64 0.24 l0.66 0.24 c0.44 0.16 0.88334 0.34334 1.33 0.55 s0.84666 0.46666 1.2 0.78 s0.64334 0.70334 0.87 1.17 s0.34 1.04 0.34 1.72 c0 0.61334 -0.11666 1.1867 -0.35 1.72 s-0.55 1 -0.95 1.4 s-0.87 0.71666 -1.41 0.95 s-1.1167 0.35 -1.73 0.35 z M178.72 6.279999999999999 l-6 0 l0 5.18 l5.06 0 c0.24 0 0.44666 0.08666 0.62 0.26 s0.26 0.38 0.26 0.62 c0 0.25334 -0.08666 0.46334 -0.26 0.63 s-0.38 0.25 -0.62 0.25 l-5.06 0 l0 6.2 c0 0.24 -0.08666 0.44666 -0.26 0.62 s-0.38 0.26 -0.62 0.26 c-0.25334 0 -0.46668 -0.08666 -0.64002 -0.26 s-0.26 -0.38 -0.26 -0.62 l0 -14.02 c0 -0.24 0.08666 -0.44666 0.26 -0.62 s0.38668 -0.26 0.64002 -0.26 l6.88 0 c0.25334 0 0.46668 0.08666 0.64002 0.26 s0.26 0.38 0.26 0.62 c0 0.25334 -0.08666 0.46334 -0.26 0.63 s-0.38668 0.25 -0.64002 0.25 z M198.12 20.3 c-0.25334 0 -0.46668 -0.08666 -0.64002 -0.26 s-0.26 -0.38 -0.26 -0.62 l0 -14.02 c0 -0.24 0.08666 -0.44666 0.26 -0.62 s0.38668 -0.26 0.64002 -0.26 c0.24 0 0.44666 0.08666 0.62 0.26 s0.26 0.38 0.26 0.62 l0 14.02 c0 0.24 -0.08666 0.44666 -0.26 0.62 s-0.38 0.26 -0.62 0.26 z M225.95999999999998 6.279999999999999 l-3.24 0 l0 13.14 c0 0.24 -0.08666 0.44666 -0.26 0.62 s-0.38 0.26 -0.62 0.26 c-0.25334 0 -0.46668 -0.08666 -0.64002 -0.26 s-0.26 -0.38 -0.26 -0.62 l0 -13.14 l-3.24 0 c-0.24 0 -0.44666 -0.08334 -0.62 -0.25 s-0.26 -0.37666 -0.26 -0.63 c0 -0.24 0.08666 -0.44666 0.26 -0.62 s0.38 -0.26 0.62 -0.26 l8.26 0 c0.24 0 0.44666 0.08666 0.62 0.26 s0.26 0.38 0.26 0.62 c0 0.25334 -0.08666 0.46334 -0.26 0.63 s-0.38 0.25 -0.62 0.25 z M254.4 20.3 c-0.33334 0 -0.58668 -0.14 -0.76002 -0.42 l-7.22 -11.44 l0 10.98 c0 0.24 -0.08334 0.44666 -0.25 0.62 s-0.37666 0.26 -0.63 0.26 c-0.24 0 -0.44666 -0.08666 -0.62 -0.26 s-0.26 -0.38 -0.26 -0.62 l0 -14.02 c0 -0.24 0.08666 -0.44666 0.26 -0.62 s0.38 -0.26 0.62 -0.26 c0.33334 0 0.58668 0.13334 0.76002 0.4 l7.22 11.44 l0 -10.96 c0 -0.24 0.08334 -0.44666 0.25 -0.62 s0.37666 -0.26 0.63 -0.26 c0.24 0 0.44666 0.08666 0.62 0.26 s0.26 0.38 0.26 0.62 l0 14.02 c0 0.24 -0.08666 0.44666 -0.26 0.62 s-0.38 0.26 -0.62 0.26 z M282.42 20.3 l-6.88 -0.000019531 c-0.25334 0 -0.46668 -0.08666 -0.64002 -0.26 s-0.26 -0.38 -0.26 -0.62 l0 -0.04 l0 -0.04 l0 -13.94 c0 -0.24 0.08666 -0.44666 0.26 -0.62 s0.38668 -0.26 0.64002 -0.26 l6.88 0 c0.25334 0 0.46668 0.08666 0.64002 0.26 s0.26 0.38 0.26 0.62 c0 0.25334 -0.08666 0.46334 -0.26 0.63 s-0.38668 0.25 -0.64002 0.25 l-6 0 l0 5.1 l5.06 0 c0.24 0 0.44666 0.08334 0.62 0.25 s0.26 0.37666 0.26 0.63 c0 0.24 -0.08666 0.44666 -0.26 0.62 s-0.38 0.26 -0.62 0.26 l-5.06 0 l0 5.38 l6 0 c0.25334 0 0.46668 0.08666 0.64002 0.26 s0.26 0.38668 0.26 0.64002 c0 0.24 -0.08666 0.44666 -0.26 0.62 s-0.38668 0.26 -0.64002 0.26 z M305.5 20.3 c-0.61334 0 -1.1867 -0.11668 -1.72 -0.35002 s-1 -0.55 -1.4 -0.95 s-0.71666 -0.86666 -0.95 -1.4 s-0.35 -1.1067 -0.35 -1.72 c0 -0.25334 0.08666 -0.46668 0.26 -0.64002 s0.38668 -0.26 0.64002 -0.26 c0.24 0 0.44666 0.08666 0.62 0.26 s0.26 0.38668 0.26 0.64002 c0 0.36 0.07 0.7 0.21 1.02 s0.33 0.6 0.57 0.84 s0.52 0.43 0.84 0.57 s0.66 0.21 1.02 0.21 s0.70334 -0.07 1.03 -0.21 s0.61 -0.33 0.85 -0.57 s0.43 -0.52 0.57 -0.84 s0.21 -0.66 0.21 -1.02 c0 -0.44 -0.08666 -0.80334 -0.26 -1.09 s-0.41334 -0.53666 -0.72 -0.75 c-0.14666 -0.10666 -0.31332 -0.20332 -0.49998 -0.28998 s-0.38 -0.17666 -0.58 -0.27 c-0.2 -0.08 -0.40666 -0.16 -0.62 -0.24 s-0.43334 -0.16 -0.66 -0.24 c-0.44 -0.16 -0.88334 -0.34 -1.33 -0.54 s-0.84666 -0.45 -1.2 -0.75 s-0.64334 -0.67334 -0.87 -1.12 s-0.34 -0.99666 -0.34 -1.65 c0 -0.61334 0.11666 -1.1867 0.35 -1.72 s0.55 -1 0.95 -1.4 s0.86666 -0.71666 1.4 -0.95 s1.1067 -0.35 1.72 -0.35 s1.19 0.11666 1.73 0.35 s1.01 0.55 1.41 0.95 s0.71666 0.86666 0.95 1.4 s0.35 1.1067 0.35 1.72 c0 0.24 -0.08666 0.44666 -0.26 0.62 s-0.38668 0.26 -0.64002 0.26 c-0.24 0 -0.44666 -0.08666 -0.62 -0.26 s-0.26 -0.38 -0.26 -0.62 c0 -0.36 -0.07 -0.70334 -0.21 -1.03 s-0.33 -0.61 -0.57 -0.85 s-0.52334 -0.43 -0.85 -0.57 s-0.67 -0.21 -1.03 -0.21 s-0.7 0.07 -1.02 0.21 s-0.6 0.33 -0.84 0.57 s-0.43 0.52334 -0.57 0.85 s-0.21 0.67 -0.21 1.03 c0 0.4 0.08334 0.73334 0.25 1 s0.40332 0.5 0.70998 0.7 c0.32 0.2 0.68 0.38 1.08 0.54 l0.64 0.24 l0.66 0.24 c0.44 0.16 0.88334 0.34334 1.33 0.55 s0.84666 0.46666 1.2 0.78 s0.64334 0.70334 0.87 1.17 s0.34 1.04 0.34 1.72 c0 0.61334 -0.11666 1.1867 -0.35 1.72 s-0.55 1 -0.95 1.4 s-0.87 0.71666 -1.41 0.95 s-1.1167 0.35 -1.73 0.35 z M332.84 20.3 c-0.61334 0 -1.1867 -0.11668 -1.72 -0.35002 s-1 -0.55 -1.4 -0.95 s-0.71666 -0.86666 -0.95 -1.4 s-0.35 -1.1067 -0.35 -1.72 c0 -0.25334 0.08666 -0.46668 0.26 -0.64002 s0.38668 -0.26 0.64002 -0.26 c0.24 0 0.44666 0.08666 0.62 0.26 s0.26 0.38668 0.26 0.64002 c0 0.36 0.07 0.7 0.21 1.02 s0.33 0.6 0.57 0.84 s0.52 0.43 0.84 0.57 s0.66 0.21 1.02 0.21 s0.70334 -0.07 1.03 -0.21 s0.61 -0.33 0.85 -0.57 s0.43 -0.52 0.57 -0.84 s0.21 -0.66 0.21 -1.02 c0 -0.44 -0.08666 -0.80334 -0.26 -1.09 s-0.41334 -0.53666 -0.72 -0.75 c-0.14666 -0.10666 -0.31332 -0.20332 -0.49998 -0.28998 s-0.38 -0.17666 -0.58 -0.27 c-0.2 -0.08 -0.40666 -0.16 -0.62 -0.24 s-0.43334 -0.16 -0.66 -0.24 c-0.44 -0.16 -0.88334 -0.34 -1.33 -0.54 s-0.84666 -0.45 -1.2 -0.75 s-0.64334 -0.67334 -0.87 -1.12 s-0.34 -0.99666 -0.34 -1.65 c0 -0.61334 0.11666 -1.1867 0.35 -1.72 s0.55 -1 0.95 -1.4 s0.86666 -0.71666 1.4 -0.95 s1.1067 -0.35 1.72 -0.35 s1.19 0.11666 1.73 0.35 s1.01 0.55 1.41 0.95 s0.71666 0.86666 0.95 1.4 s0.35 1.1067 0.35 1.72 c0 0.24 -0.08666 0.44666 -0.26 0.62 s-0.38668 0.26 -0.64002 0.26 c-0.24 0 -0.44666 -0.08666 -0.62 -0.26 s-0.26 -0.38 -0.26 -0.62 c0 -0.36 -0.07 -0.70334 -0.21 -1.03 s-0.33 -0.61 -0.57 -0.85 s-0.52334 -0.43 -0.85 -0.57 s-0.67 -0.21 -1.03 -0.21 s-0.7 0.07 -1.02 0.21 s-0.6 0.33 -0.84 0.57 s-0.43 0.52334 -0.57 0.85 s-0.21 0.67 -0.21 1.03 c0 0.4 0.08334 0.73334 0.25 1 s0.40332 0.5 0.70998 0.7 c0.32 0.2 0.68 0.38 1.08 0.54 l0.64 0.24 l0.66 0.24 c0.44 0.16 0.88334 0.34334 1.33 0.55 s0.84666 0.46666 1.2 0.78 s0.64334 0.70334 0.87 1.17 s0.34 1.04 0.34 1.72 c0 0.61334 -0.11666 1.1867 -0.35 1.72 s-0.55 1 -0.95 1.4 s-0.87 0.71666 -1.41 0.95 s-1.1167 0.35 -1.73 0.35 z M383.67999999999995 13.36 l-2.64 -0.000039062 l0 6.06 c0 0.24 -0.08666 0.44666 -0.26 0.62 s-0.38 0.26 -0.62 0.26 c-0.25334 0 -0.46668 -0.08666 -0.64002 -0.26 s-0.26 -0.38 -0.26 -0.62 l0 -14.02 c0 -0.24 0.08666 -0.44666 0.26 -0.62 s0.38668 -0.26 0.64002 -0.26 l3.52 0 c0.61334 0 1.19 0.11666 1.73 0.35 s1.01 0.55 1.41 0.95 s0.71666 0.86666 0.95 1.4 s0.35 1.1067 0.35 1.72 s-0.11666 1.1867 -0.35 1.72 s-0.55 1 -0.95 1.4 s-0.87 0.71666 -1.41 0.95 s-1.1167 0.35 -1.73 0.35 z M383.67999999999995 6.279999999999999 l-2.64 0 l0 5.3 l2.64 0 c0.36 0 0.70334 -0.07 1.03 -0.21 s0.61 -0.33 0.85 -0.57 s0.43 -0.52 0.57 -0.84 s0.21 -0.66 0.21 -1.02 s-0.07 -0.70334 -0.21 -1.03 s-0.33 -0.61 -0.57 -0.85 s-0.52334 -0.43 -0.85 -0.57 s-0.67 -0.21 -1.03 -0.21 z M416.31999999999994 20.22 c-0.10666 0.05334 -0.21992 0.08 -0.33992 0.08 c-0.17334 0 -0.33668 -0.04666 -0.49002 -0.14 s-0.26334 -0.22668 -0.33 -0.40002 l-1.58 -3.72 l-7.26 0 l-1.58 3.72 c-0.09334 0.22666 -0.25334 0.38666 -0.48 0.48 s-0.45332 0.08668 -0.67998 -0.01998 c-0.22666 -0.09334 -0.38666 -0.25334 -0.48 -0.48 s-0.08668 -0.45332 0.01998 -0.67998 l1.8 -4.26 l4.22 -9.88 c0.06666 -0.17334 0.17332 -0.30668 0.31998 -0.40002 s0.31332 -0.14 0.49998 -0.14 c0.17334 0 0.33334 0.04666 0.48 0.14 s0.25332 0.22668 0.31998 0.40002 c1.0133 2.3734 2.02 4.73 3.02 7.07 s2.0066 4.6966 3.02 7.07 c0.09334 0.22666 0.09334 0.45332 0 0.67998 s-0.25334 0.38666 -0.48 0.48 z M409.9599999999999 7.539999999999999 l-2.88 6.72 l5.74 0 z M439.31999999999994 13.36 l-0.24 -0.000039062 l0.26 -0.46 l3.62 6.06 c0.08 0.14666 0.12 0.3 0.12 0.46 c0 0.24 -0.08666 0.44666 -0.26 0.62 s-0.38 0.26 -0.62 0.26 c-0.16 0 -0.31 -0.04 -0.45 -0.12 s-0.25 -0.18666 -0.33 -0.32 l-3.88 -6.5 l-0.86 0 l0 6.06 c0 0.24 -0.08666 0.44666 -0.26 0.62 s-0.38 0.26 -0.62 0.26 c-0.25334 0 -0.46668 -0.08666 -0.64002 -0.26 s-0.26 -0.38 -0.26 -0.62 l0 -14.02 c0 -0.24 0.08666 -0.44666 0.26 -0.62 s0.38668 -0.26 0.64002 -0.26 l3.52 0 c0.61334 0 1.19 0.11666 1.73 0.35 s1.01 0.55 1.41 0.95 s0.71666 0.86666 0.95 1.4 s0.35 1.1067 0.35 1.72 s-0.11666 1.1867 -0.35 1.72 s-0.55 1 -0.95 1.4 s-0.87 0.71666 -1.41 0.95 s-1.1167 0.35 -1.73 0.35 z M439.31999999999994 6.279999999999999 l-2.64 0 l0 5.3 l2.64 0 c0.36 0 0.70334 -0.07 1.03 -0.21 s0.61 -0.33 0.85 -0.57 s0.43 -0.52 0.57 -0.84 s0.21 -0.66 0.21 -1.02 s-0.07 -0.70334 -0.21 -1.03 s-0.33 -0.61 -0.57 -0.85 s-0.52334 -0.43 -0.85 -0.57 s-0.67 -0.21 -1.03 -0.21 z M469.3999999999999 6.279999999999999 l-3.24 0 l0 13.14 c0 0.24 -0.08666 0.44666 -0.26 0.62 s-0.38 0.26 -0.62 0.26 c-0.25334 0 -0.46668 -0.08666 -0.64002 -0.26 s-0.26 -0.38 -0.26 -0.62 l0 -13.14 l-3.24 0 c-0.24 0 -0.44666 -0.08334 -0.62 -0.25 s-0.26 -0.37666 -0.26 -0.63 c0 -0.24 0.08666 -0.44666 0.26 -0.62 s0.38 -0.26 0.62 -0.26 l8.26 0 c0.24 0 0.44666 0.08666 0.62 0.26 s0.26 0.38 0.26 0.62 c0 0.25334 -0.08666 0.46334 -0.26 0.63 s-0.38 0.25 -0.62 0.25 z M497.8399999999999 20.3 c-0.33334 0 -0.58668 -0.14 -0.76002 -0.42 l-7.22 -11.44 l0 10.98 c0 0.24 -0.08334 0.44666 -0.25 0.62 s-0.37666 0.26 -0.63 0.26 c-0.24 0 -0.44666 -0.08666 -0.62 -0.26 s-0.26 -0.38 -0.26 -0.62 l0 -14.02 c0 -0.24 0.08666 -0.44666 0.26 -0.62 s0.38 -0.26 0.62 -0.26 c0.33334 0 0.58668 0.13334 0.76002 0.4 l7.22 11.44 l0 -10.96 c0 -0.24 0.08334 -0.44666 0.25 -0.62 s0.37666 -0.26 0.63 -0.26 c0.24 0 0.44666 0.08666 0.62 0.26 s0.26 0.38 0.26 0.62 l0 14.02 c0 0.24 -0.08666 0.44666 -0.26 0.62 s-0.38 0.26 -0.62 0.26 z M525.86 20.3 l-6.88 -0.000019531 c-0.25334 0 -0.46668 -0.08666 -0.64002 -0.26 s-0.26 -0.38 -0.26 -0.62 l0 -0.04 l0 -0.04 l0 -13.94 c0 -0.24 0.08666 -0.44666 0.26 -0.62 s0.38668 -0.26 0.64002 -0.26 l6.88 0 c0.25334 0 0.46668 0.08666 0.64002 0.26 s0.26 0.38 0.26 0.62 c0 0.25334 -0.08666 0.46334 -0.26 0.63 s-0.38668 0.25 -0.64002 0.25 l-6 0 l0 5.1 l5.06 0 c0.24 0 0.44666 0.08334 0.62 0.25 s0.26 0.37666 0.26 0.63 c0 0.24 -0.08666 0.44666 -0.26 0.62 s-0.38 0.26 -0.62 0.26 l-5.06 0 l0 5.38 l6 0 c0.25334 0 0.46668 0.08666 0.64002 0.26 s0.26 0.38668 0.26 0.64002 c0 0.24 -0.08666 0.44666 -0.26 0.62 s-0.38668 0.26 -0.64002 0.26 z M549.38 13.36 l-0.24 -0.000039062 l0.26 -0.46 l3.62 6.06 c0.08 0.14666 0.12 0.3 0.12 0.46 c0 0.24 -0.08666 0.44666 -0.26 0.62 s-0.38 0.26 -0.62 0.26 c-0.16 0 -0.31 -0.04 -0.45 -0.12 s-0.25 -0.18666 -0.33 -0.32 l-3.88 -6.5 l-0.86 0 l0 6.06 c0 0.24 -0.08666 0.44666 -0.26 0.62 s-0.38 0.26 -0.62 0.26 c-0.25334 0 -0.46668 -0.08666 -0.64002 -0.26 s-0.26 -0.38 -0.26 -0.62 l0 -14.02 c0 -0.24 0.08666 -0.44666 0.26 -0.62 s0.38668 -0.26 0.64002 -0.26 l3.52 0 c0.61334 0 1.19 0.11666 1.73 0.35 s1.01 0.55 1.41 0.95 s0.71666 0.86666 0.95 1.4 s0.35 1.1067 0.35 1.72 s-0.11666 1.1867 -0.35 1.72 s-0.55 1 -0.95 1.4 s-0.87 0.71666 -1.41 0.95 s-1.1167 0.35 -1.73 0.35 z M549.38 6.279999999999999 l-2.64 0 l0 5.3 l2.64 0 c0.36 0 0.70334 -0.07 1.03 -0.21 s0.61 -0.33 0.85 -0.57 s0.43 -0.52 0.57 -0.84 s0.21 -0.66 0.21 -1.02 s-0.07 -0.70334 -0.21 -1.03 s-0.33 -0.61 -0.57 -0.85 s-0.52334 -0.43 -0.85 -0.57 s-0.67 -0.21 -1.03 -0.21 z M575.8399999999999 20.3 c-0.61334 0 -1.1867 -0.11668 -1.72 -0.35002 s-1 -0.55 -1.4 -0.95 s-0.71666 -0.86666 -0.95 -1.4 s-0.35 -1.1067 -0.35 -1.72 c0 -0.25334 0.08666 -0.46668 0.26 -0.64002 s0.38668 -0.26 0.64002 -0.26 c0.24 0 0.44666 0.08666 0.62 0.26 s0.26 0.38668 0.26 0.64002 c0 0.36 0.07 0.7 0.21 1.02 s0.33 0.6 0.57 0.84 s0.52 0.43 0.84 0.57 s0.66 0.21 1.02 0.21 s0.70334 -0.07 1.03 -0.21 s0.61 -0.33 0.85 -0.57 s0.43 -0.52 0.57 -0.84 s0.21 -0.66 0.21 -1.02 c0 -0.44 -0.08666 -0.80334 -0.26 -1.09 s-0.41334 -0.53666 -0.72 -0.75 c-0.14666 -0.10666 -0.31332 -0.20332 -0.49998 -0.28998 s-0.38 -0.17666 -0.58 -0.27 c-0.2 -0.08 -0.40666 -0.16 -0.62 -0.24 s-0.43334 -0.16 -0.66 -0.24 c-0.44 -0.16 -0.88334 -0.34 -1.33 -0.54 s-0.84666 -0.45 -1.2 -0.75 s-0.64334 -0.67334 -0.87 -1.12 s-0.34 -0.99666 -0.34 -1.65 c0 -0.61334 0.11666 -1.1867 0.35 -1.72 s0.55 -1 0.95 -1.4 s0.86666 -0.71666 1.4 -0.95 s1.1067 -0.35 1.72 -0.35 s1.19 0.11666 1.73 0.35 s1.01 0.55 1.41 0.95 s0.71666 0.86666 0.95 1.4 s0.35 1.1067 0.35 1.72 c0 0.24 -0.08666 0.44666 -0.26 0.62 s-0.38668 0.26 -0.64002 0.26 c-0.24 0 -0.44666 -0.08666 -0.62 -0.26 s-0.26 -0.38 -0.26 -0.62 c0 -0.36 -0.07 -0.70334 -0.21 -1.03 s-0.33 -0.61 -0.57 -0.85 s-0.52334 -0.43 -0.85 -0.57 s-0.67 -0.21 -1.03 -0.21 s-0.7 0.07 -1.02 0.21 s-0.6 0.33 -0.84 0.57 s-0.43 0.52334 -0.57 0.85 s-0.21 0.67 -0.21 1.03 c0 0.4 0.08334 0.73334 0.25 1 s0.40332 0.5 0.70998 0.7 c0.32 0.2 0.68 0.38 1.08 0.54 l0.64 0.24 l0.66 0.24 c0.44 0.16 0.88334 0.34334 1.33 0.55 s0.84666 0.46666 1.2 0.78 s0.64334 0.70334 0.87 1.17 s0.34 1.04 0.34 1.72 c0 0.61334 -0.11666 1.1867 -0.35 1.72 s-0.55 1 -0.95 1.4 s-0.87 0.71666 -1.41 0.95 s-1.1167 0.35 -1.73 0.35 z"></path></g>
			</g>
		</svg>
	